<svg width="101" height="22" viewBox="0 0 101 22" fill="none" xmlns="http://www.w3.org/2000/svg">
<g clip-path="url(#clip0_159_3434)">
<path d="M16.5963 4.54462H16.5953L9.87477 9.47524L7.30841 17.4545H7.30935L14.029 12.5239L16.5963 4.54462ZM10.0196 13.6857L11.0878 10.3653L12.8159 11.6348L10.0196 13.6867V13.6857Z" fill="#0AD8C9"/>
<path d="M21.2178 4.20104L15.4916 0H8.41402L2.68692 4.20104L0.5 10.9995L2.68692 17.7971L8.41308 22H15.4907L21.2168 17.7971L23.4037 10.9995L21.2168 4.20104H21.2178ZM11.9523 19.866C7.10374 19.866 3.1729 15.8962 3.1729 10.9995C3.1729 6.10288 7.10374 2.13308 11.9523 2.13308C16.8009 2.13308 20.7318 6.10288 20.7318 10.9995C20.7318 15.8962 16.8009 19.866 11.9523 19.866Z" fill="#0AD8C9"/>
<path d="M89.4713 4.80885C89.3227 4.65028 89.1573 4.50965 88.9554 4.40488C88.6554 4.25009 88.319 4.17175 87.9452 4.17175C87.4545 4.17175 87.0171 4.29351 86.633 4.53796C86.2498 4.78242 85.947 5.11465 85.7283 5.5356C85.5087 5.95656 85.3984 6.4332 85.3984 6.96552C85.3984 7.49785 85.5087 7.96316 85.7283 8.38506C85.947 8.80601 86.2498 9.13825 86.633 9.3827C87.0171 9.62621 87.4517 9.74797 87.934 9.74797C88.3143 9.74797 88.6564 9.67057 88.9611 9.51578C89.162 9.4129 89.3246 9.27416 89.4713 9.11748V9.63659H90.9199V4.28218H89.4713V4.8079V4.80885ZM89.1854 7.99714C88.9368 8.27086 88.6106 8.40771 88.2078 8.40771C87.9508 8.40771 87.7209 8.34448 87.5162 8.21989C87.3106 8.09341 87.1526 7.92352 87.0386 7.70927C86.9255 7.49502 86.8695 7.24396 86.8695 6.95608C86.8695 6.66821 86.9255 6.42753 87.0386 6.21328C87.1526 5.99903 87.3087 5.82914 87.5115 5.70266C87.7125 5.57713 87.9442 5.51484 88.2078 5.51484C88.4713 5.51484 88.7134 5.57619 88.9106 5.69794C89.1078 5.81876 89.2657 5.99148 89.3826 6.21328C89.4994 6.43414 89.5583 6.6852 89.5583 6.96647C89.5583 7.37987 89.434 7.72437 89.1854 7.99714Z" fill="#0AD8C9"/>
<path d="M81.4105 1.84332H79.918V9.63757H81.0142H84.9451V8.29637H81.4105V1.84332Z" fill="#0AD8C9"/>
<path d="M100.244 8.16898C100.072 7.99437 99.857 7.90753 99.6018 7.90753C99.3308 7.90753 99.1112 7.99437 98.943 8.16898C98.7747 8.3417 98.6916 8.56256 98.6916 8.82872C98.6916 9.09488 98.7747 9.30725 98.943 9.48847C99.1112 9.66968 99.3317 9.75935 99.6018 9.75935C99.8579 9.75935 100.072 9.66968 100.244 9.48847C100.415 9.30725 100.502 9.08733 100.502 8.82872C100.502 8.57011 100.416 8.34264 100.244 8.16898Z" fill="#0AD8C9"/>
<path d="M96.4334 4.53799C96.0418 4.29354 95.6007 4.17178 95.11 4.17178C94.7371 4.17178 94.3941 4.25201 94.0839 4.41057C93.9007 4.50401 93.7465 4.62388 93.6063 4.75696V1.84332H92.168V9.63662H93.5951V9.14771C93.7362 9.2874 93.8923 9.41293 94.0773 9.5092C94.3848 9.66871 94.7287 9.74705 95.1091 9.74705C95.5997 9.74705 96.039 9.6253 96.4268 9.38178C96.8147 9.13733 97.1194 8.8051 97.3437 8.38414C97.567 7.96319 97.6773 7.48938 97.6773 6.96461C97.6773 6.43983 97.568 5.95564 97.3483 5.53469C97.1297 5.11373 96.8231 4.78056 96.4315 4.53705L96.4334 4.53799ZM96.0268 7.70835C95.9138 7.92261 95.7586 8.0925 95.5614 8.21897C95.3633 8.3445 95.1334 8.4068 94.8698 8.4068C94.6063 8.4068 94.3717 8.34356 94.167 8.21897C93.9614 8.0925 93.8044 7.92261 93.6941 7.70835C93.5848 7.4941 93.5296 7.24682 93.5296 6.96555C93.5296 6.68429 93.5848 6.42567 93.6941 6.21237C93.8044 5.99811 93.9596 5.82822 94.1614 5.70175C94.3624 5.57622 94.5951 5.51392 94.8596 5.51392C95.124 5.51392 95.3549 5.57716 95.5558 5.70175C95.7568 5.82822 95.9147 5.99906 96.0278 6.21708C96.1418 6.43511 96.1979 6.68145 96.1979 6.95517C96.1979 7.24304 96.1418 7.49505 96.0278 7.70835H96.0268Z" fill="#0AD8C9"/>
<path d="M36.2822 7.19961C36.0495 6.96837 35.7888 6.76261 35.4729 6.60593C34.9458 6.34638 34.3486 6.21613 33.6841 6.21613C32.8673 6.21613 32.1336 6.41528 31.4813 6.81452C30.828 7.21377 30.3168 7.75647 29.9458 8.44076C29.5757 9.1241 29.3906 9.89805 29.3906 10.7607C29.3906 11.6234 29.5757 12.4021 29.9458 13.0986C30.3168 13.7961 30.828 14.3445 31.4813 14.7437C32.1336 15.143 32.8682 15.3421 33.6841 15.3421C34.3495 15.3421 34.943 15.21 35.4626 14.9438C35.7729 14.7853 36.0308 14.5814 36.2635 14.353V15.1713C36.2635 15.8443 36.0374 16.3794 35.586 16.7787C35.1346 17.1779 34.5317 17.378 33.7785 17.378C33.1635 17.378 32.6392 17.2657 32.2056 17.0448C31.7729 16.823 31.3803 16.5021 31.0289 16.0849L29.4476 17.6621C29.9 18.2964 30.4925 18.7871 31.228 19.1364C31.9617 19.4846 32.8187 19.6593 33.7981 19.6593C34.7775 19.6593 35.6177 19.4724 36.3589 19.0986C37.099 18.7239 37.6803 18.1963 38.1 17.5111C38.5215 16.8258 38.7317 16.034 38.7317 15.1345V6.40584H36.2841V7.19866L36.2822 7.19961ZM36.1215 11.9688C35.9402 12.3181 35.6822 12.5861 35.3495 12.7768C35.0177 12.9665 34.6177 13.0627 34.1542 13.0627C33.7271 13.0627 33.342 12.9646 32.9953 12.7673C32.6504 12.571 32.3841 12.2992 32.1953 11.95C32.0065 11.6017 31.9131 11.2053 31.9131 10.7617C31.9131 10.3181 32.0103 9.94052 32.2046 9.5913C32.4 9.24302 32.6635 8.9712 32.9953 8.77394C33.328 8.57762 33.7205 8.47851 34.1729 8.47851C34.6252 8.47851 35.0009 8.57762 35.3402 8.77394C35.6794 8.9712 35.9402 9.24302 36.1215 9.5913C36.3037 9.94052 36.3953 10.336 36.3953 10.7796C36.3953 11.2232 36.3046 11.6206 36.1215 11.9688Z" fill="#0AD8C9"/>
<path d="M47.3141 7.30815C47.059 7.03727 46.7749 6.7947 46.4291 6.61632C45.9141 6.35016 45.3365 6.21802 44.6963 6.21802C43.8552 6.21802 43.1048 6.42661 42.4459 6.84567C41.787 7.26285 41.2692 7.83387 40.8926 8.55591C40.516 9.27984 40.3281 10.0963 40.3281 11.0099C40.3281 11.9235 40.516 12.7201 40.8926 13.4441C41.2692 14.1671 41.7861 14.7371 42.4459 15.1543C43.1048 15.5734 43.8496 15.7829 44.6777 15.7829C45.33 15.7829 45.9178 15.6498 46.4375 15.3837C46.7823 15.2081 47.0627 14.9684 47.3132 14.7013V15.5932H49.7992V6.40867H47.3132V7.3091L47.3141 7.30815ZM46.8244 12.7768C46.3973 13.2459 45.8384 13.4799 45.1487 13.4799C44.7085 13.4799 44.3132 13.3733 43.9627 13.1581C43.6113 12.9419 43.3384 12.6503 43.1431 12.2822C42.9487 11.915 42.8515 11.4847 42.8515 10.9891C42.8515 10.4936 42.9487 10.083 43.1431 9.71589C43.3384 9.3478 43.6076 9.05615 43.9524 8.84095C44.2982 8.62481 44.6963 8.51722 45.1487 8.51722C45.601 8.51722 46.015 8.62104 46.3534 8.83057C46.6926 9.0401 46.9618 9.33458 47.1627 9.71495C47.3627 10.0944 47.4636 10.5257 47.4636 11.008C47.4636 11.7178 47.2496 12.3067 46.8235 12.7758L46.8244 12.7768Z" fill="#0AD8C9"/>
<path d="M74.7701 6.78808C74.0925 6.3945 73.3261 6.19818 72.4729 6.19818C71.5691 6.19818 70.7532 6.40771 70.0252 6.82584C69.2962 7.24396 68.7233 7.81498 68.3028 8.53608C67.8813 9.25906 67.6719 10.0764 67.6719 10.9891C67.6719 11.9018 67.885 12.7399 68.3121 13.462C68.7383 14.185 69.3261 14.755 70.0729 15.1722C70.8187 15.5913 71.6691 15.7999 72.6233 15.7999C73.3635 15.7999 74.0476 15.6668 74.6757 15.4016C75.3028 15.1354 75.8486 14.7362 76.314 14.2029L74.8458 12.7192C74.5691 13.0495 74.243 13.2893 73.8663 13.4431C73.4897 13.5951 73.0682 13.6715 72.6046 13.6715C72.0906 13.6715 71.6374 13.5639 71.2486 13.3478C70.8588 13.1316 70.5617 12.8183 70.3551 12.4058C70.2738 12.2454 70.2215 12.0632 70.1729 11.8801L76.8037 11.8641C76.8542 11.6611 76.885 11.4733 76.8981 11.3025C76.9112 11.1316 76.9168 10.9627 76.9168 10.7985C76.9168 9.91125 76.728 9.11937 76.3514 8.42187C75.9747 7.72532 75.4476 7.17978 74.7701 6.78714V6.78808ZM71.1729 8.61253C71.5364 8.39733 71.9635 8.28879 72.4532 8.28879C72.9168 8.28879 73.3065 8.38506 73.6205 8.57477C73.9336 8.76449 74.1794 9.04292 74.3551 9.41102C74.4392 9.58752 74.5028 9.78667 74.5486 10.0037L70.1738 10.016C70.2187 9.84896 70.2635 9.6819 70.3355 9.53466C70.5299 9.13542 70.8093 8.82772 71.1729 8.61158V8.61253Z" fill="#0AD8C9"/>
<path d="M64.5268 6.6446C63.9866 6.35956 63.3782 6.21704 62.7006 6.21704C62.0231 6.21704 61.4072 6.36617 60.8548 6.66348C60.4072 6.9051 60.0464 7.243 59.7352 7.63752C59.452 7.22978 59.1081 6.88717 58.6707 6.6446C58.1558 6.35956 57.5847 6.21704 56.9576 6.21704C56.2922 6.21704 55.6959 6.35956 55.1688 6.6446C54.8838 6.79939 54.6361 6.99477 54.4156 7.21751V6.4077H51.9492V15.5922H54.4156V10.1916C54.4156 9.82346 54.4941 9.51293 54.6502 9.25904C54.8081 9.00609 55.0146 8.8126 55.2717 8.67952C55.5296 8.54644 55.8221 8.47943 56.1474 8.47943C56.6371 8.47943 57.0455 8.6295 57.3717 8.92681C57.6978 9.22506 57.8614 9.63941 57.8614 10.1727V15.5922H60.3474V10.1916C60.3474 9.82346 60.4259 9.51293 60.5819 9.25904C60.7399 9.00609 60.9464 8.8126 61.2044 8.67952C61.4614 8.54644 61.7595 8.47943 62.0978 8.47943C62.5745 8.47943 62.9763 8.6295 63.3025 8.92681C63.6287 9.22506 63.7922 9.63941 63.7922 10.1727V15.5922H66.2969V9.79231C66.2969 9.04385 66.1361 8.40298 65.8165 7.87159C65.4959 7.33927 65.067 6.92964 64.5268 6.6446Z" fill="#0AD8C9"/>
</g>
<defs>
<clipPath id="clip0_159_3434">
<rect width="100" height="22" fill="white" transform="translate(0.5)"/>
</clipPath>
</defs>
</svg>
