<svg width="141" height="22" viewBox="0 0 141 22" fill="none" xmlns="http://www.w3.org/2000/svg">
<g clip-path="url(#clip0_159_3446)">
<path d="M16.5677 4.54431H16.5667L9.85888 9.47486L7.29688 17.4538H7.29781L14.0047 12.5233L16.5677 4.54431ZM10.0035 13.6858L11.0694 10.3654L12.7942 11.6346L10.0026 13.6867L10.0035 13.6858Z" fill="#10C4D6"/>
<path d="M21.178 4.20055L15.4632 0H8.3988L2.68307 4.20055L0.5 10.9991L2.68307 17.7966L8.3988 21.9991H15.4632L21.1789 17.7966L23.362 10.9991L21.1789 4.20055H21.178ZM11.9305 19.8657C7.09027 19.8657 3.16747 15.8965 3.16747 10.9991C3.16747 6.10156 7.0912 2.13238 11.9305 2.13238C16.7699 2.13238 20.6936 6.10156 20.6936 10.9991C20.6936 15.8965 16.7708 19.8657 11.9305 19.8657Z" fill="#10C4D6"/>
<path d="M74.6249 6.78814C73.9483 6.39434 73.1839 6.19885 72.3317 6.19885C71.4292 6.19885 70.6153 6.40756 69.8883 6.82686C69.1612 7.24521 68.5881 7.81561 68.1691 8.53711C67.7491 9.25955 67.5391 10.0774 67.5391 10.9906C67.5391 11.9038 67.7519 12.7414 68.1784 13.4639C68.604 14.1863 69.1901 14.7567 69.9359 15.1741C70.6807 15.5934 71.5291 15.8021 72.482 15.8021C73.2212 15.8021 73.9035 15.669 74.5307 15.4036C75.1569 15.1373 75.702 14.7378 76.1659 14.2043L74.6996 12.7207C74.4233 13.0512 74.0985 13.2911 73.7224 13.444C73.3463 13.5961 72.9263 13.6726 72.4633 13.6726C71.95 13.6726 71.4983 13.5649 71.11 13.3496C70.7208 13.1333 70.4249 12.8198 70.2177 12.4081C70.1365 12.2475 70.0852 12.0653 70.0357 11.8821L76.654 11.867C76.7044 11.6639 76.7352 11.4769 76.7483 11.3051C76.7613 11.1341 76.7669 10.966 76.7669 10.8008C76.7669 9.914 76.5793 9.12167 76.2032 8.42378C75.8271 7.72684 75.3007 7.18194 74.6249 6.78908V6.78814ZM71.0353 8.61266C71.3984 8.39734 71.8249 8.28968 72.3131 8.28968C72.776 8.28968 73.1652 8.38601 73.4779 8.57583C73.7905 8.76564 74.036 9.04423 74.2105 9.41254C74.2945 9.58913 74.3571 9.7884 74.4037 10.0047L70.0367 10.0169C70.0815 9.84978 70.1263 9.68263 70.1981 9.53531C70.3923 9.13584 70.6713 8.82892 71.0344 8.61266H71.0353Z" fill="#10C4D6"/>
<path d="M85.773 2.58569H83.3108V6.40755H81.1875V8.59471H83.3108V15.5925H85.773V8.59471H87.8963V6.40755H85.773V2.58569Z" fill="#10C4D6"/>
<path d="M64.4049 6.64456C63.8654 6.35936 63.2588 6.21676 62.5821 6.21676C61.9054 6.21676 61.2913 6.36597 60.7406 6.66345C60.2936 6.90521 59.9342 7.24329 59.6234 7.63709C59.3406 7.22913 58.9972 6.88632 58.5604 6.64362C58.0461 6.35842 57.4758 6.21582 56.8505 6.21582C56.1869 6.21582 55.5914 6.35842 55.065 6.64362C54.7804 6.7985 54.534 6.99304 54.3137 7.21685V6.40658H51.8516V15.5915H54.3137V10.1907C54.3137 9.82236 54.3921 9.51167 54.548 9.25763C54.7048 9.00454 54.912 8.81094 55.1677 8.67779C55.4253 8.54463 55.7165 8.47758 56.0422 8.47758C56.5313 8.47758 56.9382 8.62774 57.264 8.92521C57.5897 9.22363 57.753 9.63821 57.753 10.1708V15.5906H60.2338V10.1897C60.2338 9.82142 60.3122 9.51072 60.4681 9.25669C60.6258 9.00359 60.8321 8.81 61.0897 8.67684C61.3454 8.54369 61.6432 8.47664 61.982 8.47664C62.458 8.47664 62.8584 8.62679 63.185 8.92427C63.5108 9.22269 63.6741 9.63727 63.6741 10.1699V15.5896H66.1736V9.78931C66.1736 9.04043 66.013 8.40014 65.6938 7.86846C65.3746 7.33584 64.9462 6.92693 64.4068 6.64173L64.4049 6.64456Z" fill="#10C4D6"/>
<path d="M47.2268 7.30754C46.972 7.03651 46.6892 6.79475 46.3439 6.61532C45.8296 6.34901 45.2538 6.2168 44.6144 6.2168C43.7744 6.2168 43.0259 6.42456 42.3679 6.8448C41.7099 7.26221 41.1938 7.83261 40.8176 8.55505C40.4415 9.27844 40.2539 10.0953 40.2539 11.0095C40.2539 11.9236 40.4415 12.7197 40.8176 13.4431C41.1938 14.1655 41.7099 14.7359 42.3679 15.1534C43.0259 15.5727 43.7688 15.7823 44.5958 15.7823C45.2463 15.7823 45.8334 15.6491 46.3523 15.3828C46.6967 15.2072 46.9758 14.9673 47.2268 14.7001V15.5915H49.7076V6.40661H47.2268V7.3066V7.30754ZM46.7387 12.7773C46.3122 13.2467 45.754 13.4809 45.0662 13.4809C44.6266 13.4809 44.2327 13.3742 43.8818 13.1588C43.5308 12.9426 43.2583 12.6517 43.0642 12.2834C42.87 11.9161 42.773 11.4854 42.773 10.9906C42.773 10.4957 42.87 10.0849 43.0642 9.71757C43.2592 9.34927 43.528 9.0584 43.8724 8.84308C44.2178 8.62682 44.6154 8.52011 45.0662 8.52011C45.517 8.52011 45.9304 8.62399 46.2692 8.83364C46.6071 9.04235 46.8768 9.33793 47.0775 9.71851C47.2772 10.0982 47.378 10.5288 47.378 11.0114C47.378 11.7206 47.1643 12.3108 46.7387 12.7792V12.7773Z" fill="#10C4D6"/>
<path d="M115.561 6.66344C115.035 6.36596 114.427 6.21675 113.739 6.21675C113.05 6.21675 112.436 6.36785 111.897 6.67194C111.611 6.83437 111.364 7.03363 111.146 7.26122V1.84338H108.684V15.5924H111.146V10.3248C111.146 9.96967 111.224 9.64953 111.381 9.36433C111.537 9.07913 111.753 8.86004 112.029 8.70894C112.305 8.55595 112.619 8.47946 112.969 8.47946C113.495 8.47946 113.927 8.65133 114.265 8.9932C114.603 9.33695 114.773 9.77985 114.773 10.3257V15.5934H117.253V9.75436C117.253 9.05741 117.103 8.44357 116.803 7.91001C116.502 7.37738 116.089 6.9628 115.562 6.66533L115.561 6.66344Z" fill="#10C4D6"/>
<path d="M95.7695 6.78808C95.0928 6.39428 94.3294 6.19879 93.4763 6.19879C92.5738 6.19879 91.7599 6.4075 91.0328 6.8268C90.3067 7.24515 89.7327 7.81555 89.3136 8.53705C88.8936 9.25949 88.6836 10.0773 88.6836 10.9905C88.6836 11.9037 88.8974 12.7414 89.323 13.4638C89.7495 14.1863 90.3347 14.7567 91.0804 15.1741C91.8252 15.5934 92.6746 15.8021 93.6266 15.8021C94.3667 15.8021 95.049 15.6689 95.6752 15.4035C96.3024 15.1372 96.8475 14.7378 97.3104 14.2042L95.8442 12.7206C95.5688 13.0511 95.2431 13.291 94.867 13.444C94.4908 13.596 94.0718 13.6725 93.6079 13.6725C93.0946 13.6725 92.6438 13.5649 92.2546 13.3495C91.8663 13.1333 91.5695 12.8198 91.3623 12.408C91.2811 12.2475 91.2298 12.0652 91.1803 11.882L97.7986 11.8669C97.849 11.6638 97.8807 11.4769 97.8928 11.305C97.9059 11.1341 97.9115 10.966 97.9115 10.8007C97.9115 9.91394 97.7239 9.12161 97.3478 8.42372C96.9716 7.72678 96.4452 7.18188 95.7695 6.78902V6.78808ZM92.1799 8.6126C92.5439 8.39728 92.9695 8.28962 93.4576 8.28962C93.9458 8.28962 94.3107 8.38595 94.6224 8.57577C94.936 8.76558 95.1806 9.04417 95.3551 9.41248C95.44 9.58907 95.5026 9.78833 95.5492 10.0046L91.1822 10.0169C91.227 9.84972 91.2718 9.68257 91.3436 9.53524C91.5378 9.13578 91.8168 8.82886 92.1799 8.6126Z" fill="#10C4D6"/>
<path d="M36.2116 7.19986C35.9792 6.96849 35.7198 6.76261 35.4034 6.60679C34.877 6.34709 34.2815 6.21771 33.6179 6.21771C32.8031 6.21771 32.0695 6.41697 31.419 6.81644C30.7675 7.21591 30.257 7.75798 29.8864 8.44264C29.5178 9.12637 29.332 9.8998 29.332 10.763C29.332 11.6261 29.5168 12.4043 29.8864 13.1012C30.256 13.7991 30.7666 14.3468 31.419 14.7463C32.0695 15.1458 32.8031 15.345 33.6179 15.345C34.2815 15.345 34.8742 15.2128 35.3931 14.9465C35.703 14.7879 35.9606 14.5839 36.192 14.3553V15.1732C36.192 15.8455 35.9662 16.381 35.5154 16.7805C35.0646 17.1799 34.4626 17.3801 33.7112 17.3801C33.0971 17.3801 32.5735 17.2678 32.1414 17.0468C31.7092 16.8249 31.3172 16.5047 30.9672 16.0873L29.388 17.6644C29.8388 18.299 30.4306 18.7891 31.1642 19.1386C31.8959 19.487 32.7518 19.6608 33.729 19.6608C34.7062 19.6608 35.5452 19.4738 36.2854 19.1008C37.0246 18.7268 37.6042 18.198 38.0232 17.5133C38.4432 16.8277 38.6532 16.0363 38.6532 15.1363V6.40753H36.2098V7.19986H36.2116ZM36.052 11.9689C35.871 12.3183 35.6143 12.5865 35.2811 12.7763C34.9498 12.9662 34.5512 13.0625 34.0883 13.0625C33.6618 13.0625 33.2772 12.9643 32.9319 12.7669C32.5875 12.5705 32.3215 12.2985 32.1339 11.9491C31.9463 11.6006 31.852 11.204 31.852 10.7611C31.852 10.3182 31.9491 9.94041 32.1432 9.591C32.3383 9.24252 32.6015 8.97055 32.9328 8.77317C33.2651 8.57674 33.6571 8.47759 34.1079 8.47759C34.5587 8.47759 34.9348 8.57674 35.2727 8.77317C35.6106 8.97055 35.871 9.24252 36.052 9.591C36.234 9.94041 36.3255 10.3361 36.3255 10.779C36.3255 11.2219 36.235 11.6195 36.052 11.968V11.9689Z" fill="#10C4D6"/>
<path d="M102.526 8.85061C102.884 8.6419 103.287 8.53613 103.738 8.53613C104.139 8.53613 104.505 8.60601 104.837 8.74484C105.168 8.8846 105.447 9.09425 105.673 9.37284L107.29 7.73814C106.839 7.23102 106.313 6.8476 105.712 6.58696C105.11 6.3282 104.452 6.19788 103.738 6.19788C102.812 6.19788 101.978 6.40658 101.239 6.82588C100.5 7.24424 99.9174 7.81747 99.4909 8.54652C99.0653 9.27652 98.8516 10.0962 98.8516 11.0094C98.8516 11.9226 99.0653 12.7046 99.4909 13.4336C99.9174 14.1636 100.5 14.7397 101.239 15.1637C101.978 15.5887 102.806 15.8002 103.72 15.8002C104.447 15.8002 105.113 15.6642 105.722 15.3922C106.329 15.1203 106.852 14.7293 107.291 14.2231L105.712 12.6064C105.462 12.8849 105.174 13.0974 104.848 13.2429C104.522 13.3892 104.153 13.462 103.739 13.462C103.289 13.462 102.884 13.3543 102.528 13.139C102.17 12.9227 101.892 12.6319 101.691 12.2636C101.491 11.8962 101.39 11.4722 101.39 10.9896C101.39 10.507 101.491 10.084 101.691 9.71659C101.891 9.34829 102.17 9.06026 102.528 8.85061H102.526Z" fill="#10C4D6"/>
<path d="M136.44 4.53767C136.049 4.29307 135.61 4.17125 135.12 4.17125C134.748 4.17125 134.406 4.25152 134.096 4.41018C133.913 4.50367 133.759 4.6236 133.619 4.75676V1.84338H132.184V9.63725H133.608V9.14902C133.749 9.28878 133.905 9.41438 134.089 9.51071C134.395 9.67031 134.739 9.74869 135.119 9.74869C135.609 9.74869 136.047 9.62687 136.434 9.38322C136.82 9.13863 137.125 8.80621 137.349 8.38502C137.571 7.96383 137.682 7.48976 137.682 6.96564C137.682 6.44151 137.573 5.95705 137.353 5.53586C137.135 5.11467 136.829 4.78226 136.439 4.53767H136.44ZM136.034 7.70885C135.922 7.92323 135.767 8.09321 135.57 8.21976C135.372 8.34441 135.142 8.40769 134.879 8.40769C134.616 8.40769 134.382 8.34441 134.178 8.21976C133.974 8.09321 133.816 7.92323 133.706 7.70885C133.597 7.49448 133.541 7.24706 133.541 6.96658C133.541 6.6861 133.597 6.42735 133.706 6.21298C133.816 5.9986 133.971 5.82862 134.171 5.70207C134.372 5.57742 134.605 5.51414 134.868 5.51414C135.131 5.51414 135.362 5.57742 135.563 5.70207C135.764 5.82862 135.922 5.99955 136.034 6.2177C136.147 6.43585 136.203 6.68233 136.203 6.95525C136.203 7.24328 136.147 7.49448 136.034 7.70885H136.034Z" fill="#10C4D6"/>
<path d="M121.447 1.84338H119.957V9.63725H121.052H124.975V8.29625H121.447V1.84338Z" fill="#10C4D6"/>
<path d="M140.242 8.16876C140.07 7.99499 139.856 7.90717 139.601 7.90717C139.331 7.90717 139.111 7.99405 138.943 8.16876C138.775 8.34157 138.692 8.56256 138.692 8.82792C138.692 9.09329 138.775 9.30672 138.943 9.48709C139.111 9.66841 139.33 9.75813 139.601 9.75813C139.855 9.75813 140.069 9.66841 140.242 9.48709C140.413 9.30577 140.499 9.08574 140.499 8.82792C140.499 8.57011 140.414 8.34157 140.242 8.16876Z" fill="#10C4D6"/>
<path d="M129.487 4.80871C129.339 4.651 129.174 4.50935 128.972 4.40452C128.673 4.24965 128.338 4.17126 127.964 4.17126C127.474 4.17126 127.038 4.29309 126.655 4.53768C126.272 4.78227 125.971 5.11374 125.751 5.53588C125.532 5.95706 125.422 6.43397 125.422 6.96565C125.422 7.49733 125.532 7.96385 125.751 8.38504C125.97 8.80622 126.271 9.13864 126.655 9.38323C127.038 9.62688 127.471 9.7487 127.954 9.7487C128.334 9.7487 128.675 9.67126 128.979 9.51639C129.179 9.41345 129.342 9.27463 129.488 9.11881V9.63821H130.934V4.28364H129.488V4.80966L129.487 4.80871ZM129.203 7.9969C128.955 8.26982 128.629 8.40676 128.227 8.40676C127.971 8.40676 127.742 8.34348 127.537 8.21883C127.332 8.09228 127.174 7.9223 127.06 7.70792C126.947 7.49355 126.891 7.24235 126.891 6.95432C126.891 6.66629 126.947 6.42547 127.06 6.21204C127.174 5.99767 127.33 5.82769 127.531 5.70114C127.732 5.57648 127.963 5.51321 128.227 5.51321C128.49 5.51321 128.731 5.5746 128.927 5.69642C129.124 5.8173 129.281 5.99012 129.399 6.21204C129.515 6.43303 129.574 6.68423 129.574 6.96565C129.574 7.37928 129.451 7.72303 129.202 7.9969H129.203Z" fill="#10C4D6"/>
</g>
<defs>
<clipPath id="clip0_159_3446">
<rect width="140" height="22" fill="white" transform="translate(0.5)"/>
</clipPath>
</defs>
</svg>
